<?xml version="1.0" encoding="UTF-8" standalone="no"?>
<svg
	xmlns:dc="http://purl.org/dc/elements/1.1/"
	xmlns:cc="http://creativecommons.org/ns#"
	xmlns:rdf="http://www.w3.org/1999/02/22-rdf-syntax-ns#"
	xmlns:svg="http://www.w3.org/2000/svg"
	xmlns="http://www.w3.org/2000/svg"
	xmlns:xlink="http://www.w3.org/1999/xlink"
	id="sharingan"
	width="300"
	height="300">
	<defs
		id="defs">
		<radialGradient
			id="gr">
			<stop
				offset="0"
				style="stop-color:#660000; stop-opacity: 1;"
				id="st1" />
			<stop
				style="stop-color:#c30000; stop-opacity: 1;"
				offset="0.5"
				id="st2"/>
			<stop
				style="stop-color:#a00000; stop-opacity: 1;"
				offset="1"
				id="st3"/>
		</radialGradient>
	</defs>
	<circle
		style="fill: url(#gr); stroke:#000; stroke-width:10;"
		cx="150"
		cy="150"
		r="145"
		id="iris" />
	<g
		id="tomoe 1">
		<path
			style="fill:#000;"
			d="M 107.5,150 C 110,100 130,20 150,0 C 170,20 190,100 192.5,150 C 168,150 132,150 107.5,150 z"
			id="tomoe 1a" />
		<path
			style="fill:#000;"
			d="M 250.2,181.2 C 261.8,142 250.4,46.8 157.4,10 C 154.9,31.7 161.1,51.3 178.8,67.3 C 216.6,76 258.3,118.6 244.6,175.2 C 224.9,193.2 242.3,203.3 250.2,181.2 z"
			id="tomoe 1b" />
	</g>
	<use
		xlink:href="#tomoe 1"
		transform="rotate(120 150 150)"
		id="tomoe 2" />
	<use
		xlink:href="#tomoe 1"
		transform="rotate(-120 150 150)"
		id="tomoe 3" />
	<circle
		style="fill:#a00000;"
		cx="150"
		cy="150"
		r="28"
		id="center"/>
</svg>